<svg width="702" height="400" viewBox="0 0 702 400" fill="none" xmlns="http://www.w3.org/2000/svg">
<g clip-path="url(#clip0_233_221)">
<path d="M698 0H4C1.79086 0 0 1.79086 0 4V396C0 398.209 1.79087 400 4.00001 400H698C700.209 400 702 398.209 702 396V4C702 1.79086 700.209 0 698 0Z" fill="white"/>
<path d="M257.086 134.971C251.057 134.971 246.536 135.387 243.522 136.219C242.182 131.56 241.512 126.983 241.512 122.49C241.512 119.827 242.684 118.496 245.029 118.496H302.051V256.787C302.051 265.108 299.204 271.598 293.51 276.258C287.816 280.917 280.113 283.247 270.4 283.247C260.854 283.247 253.235 281.167 247.541 277.007C241.847 272.68 239 267.105 239 260.282V229.329C239 226.333 241.177 224.253 245.531 223.088C247.876 222.422 250.22 222.09 252.565 222.09C254.909 222.09 257.254 222.339 259.598 222.839C259.096 226.833 258.845 231.076 258.845 235.569V256.787C258.845 259.949 259.933 262.445 262.11 264.276C264.287 265.94 267.134 266.772 270.651 266.772C274.168 266.772 276.931 265.94 278.94 264.276C281.118 262.445 282.206 259.949 282.206 256.787V134.971H257.086ZM319.479 257.786V142.46C319.479 134.139 322.326 127.649 328.02 122.989C333.714 118.33 341.501 116 351.381 116C361.262 116 368.882 118.163 374.24 122.49C379.767 126.817 382.53 133.141 382.53 141.462V256.787C382.53 265.108 379.599 271.598 373.738 276.258C368.044 280.917 360.257 283.247 350.377 283.247C340.496 283.247 332.876 281.084 327.518 276.757C322.159 272.43 319.479 266.106 319.479 257.786ZM339.324 142.46V256.787C339.324 259.783 340.329 262.196 342.338 264.026C344.516 265.857 347.362 266.772 350.879 266.772C354.396 266.772 357.243 265.94 359.42 264.276C361.597 262.445 362.685 259.949 362.685 256.787V142.46C362.685 139.298 361.597 136.885 359.42 135.221C357.243 133.39 354.396 132.475 350.879 132.475C347.362 132.475 344.516 133.39 342.338 135.221C340.329 136.885 339.324 139.298 339.324 142.46ZM398.703 176.159V142.46C398.703 134.139 401.55 127.649 407.244 122.989C412.937 118.33 420.557 116 430.102 116C439.816 116 447.519 118.163 453.213 122.49C458.908 126.65 461.753 132.142 461.753 138.965V169.919C461.753 172.914 459.575 174.994 455.222 176.159C452.879 176.825 450.532 177.158 448.189 177.158C445.844 177.158 443.5 176.908 441.155 176.409C441.658 172.415 441.909 168.171 441.909 163.678V142.46C441.909 139.298 440.82 136.885 438.643 135.221C436.466 133.39 433.619 132.475 430.102 132.475C426.586 132.475 423.739 133.39 421.562 135.221C419.552 136.885 418.547 139.298 418.547 142.46V171.666C418.547 177.49 420.473 181.567 424.325 183.897L450.952 200.872C458.488 205.531 462.256 212.687 462.256 222.339V256.787C462.256 265.108 459.324 271.598 453.464 276.258C447.603 280.917 439.816 283.247 430.102 283.247C420.557 283.247 412.853 281.167 406.992 277.007C401.131 272.68 398.2 267.105 398.2 260.282V229.329C398.2 226.333 400.378 224.253 404.732 223.088C407.076 222.422 409.421 222.09 411.765 222.09C414.109 222.09 416.454 222.339 418.799 222.839C418.296 226.833 418.045 231.076 418.045 235.569V256.787C418.045 259.783 419.217 262.196 421.562 264.026C423.906 265.857 426.837 266.772 430.354 266.772C433.87 266.772 436.717 265.857 438.894 264.026C441.239 262.196 442.411 259.783 442.411 256.787V228.58C442.411 222.09 440.15 217.43 435.629 214.601L409.002 197.377C402.136 193.05 398.703 185.978 398.703 176.159Z" fill="black"/>
</g>
<defs>
<clipPath id="clip0_233_221">
<rect width="702" height="400" fill="white"/>
</clipPath>
</defs>
</svg>
