<svg width="64" height="64" viewBox="0 0 64 64" fill="none" xmlns="http://www.w3.org/2000/svg">
<g clip-path="url(#clip0_233_104)">
<path d="M60 0H4C1.79086 0 0 1.79086 0 4V60C0 62.2091 1.79086 64 4 64H60C62.2091 64 64 62.2091 64 60V4C64 1.79086 62.2091 0 60 0Z" fill="white"/>
<path d="M16.8938 22.0354C15.9292 22.0354 15.2057 22.1019 14.7234 22.2351C14.5091 21.4896 14.4019 20.7573 14.4019 20.0384C14.4019 19.6124 14.5895 19.3994 14.9646 19.3994H24.0881V41.526C24.0881 42.8573 23.6326 43.8957 22.7216 44.6413C21.8106 45.3868 20.578 45.7596 19.024 45.7596C17.4967 45.7596 16.2775 45.4267 15.3665 44.7611C14.4555 44.0688 14 43.1768 14 42.0851V37.1326C14 36.6533 14.3483 36.3205 15.045 36.1341C15.4201 36.0276 15.7952 35.9744 16.1703 35.9744C16.5454 35.9744 16.9206 36.0143 17.2957 36.0942C17.2153 36.7332 17.1751 37.4122 17.1751 38.1311V41.526C17.1751 42.0318 17.3493 42.4312 17.6976 42.7242C18.046 42.9904 18.5015 43.1236 19.0641 43.1236C19.6268 43.1236 20.0689 42.9904 20.3905 42.7242C20.7388 42.4312 20.913 42.0318 20.913 41.526V22.0354H16.8938ZM26.8767 41.6857V23.2336C26.8767 21.9022 27.3322 20.8638 28.2432 20.1183C29.1543 19.3727 30.4002 19 31.981 19C33.5619 19 34.7811 19.3461 35.6385 20.0384C36.5227 20.7307 36.9648 21.7425 36.9648 23.0738V41.526C36.9648 42.8573 36.4959 43.8957 35.5581 44.6413C34.6471 45.3868 33.4011 45.7596 31.8203 45.7596C30.2394 45.7596 29.0202 45.4134 28.1628 44.7211C27.3054 44.0288 26.8767 43.017 26.8767 41.6857ZM30.0518 23.2336V41.526C30.0518 42.0052 30.2126 42.3913 30.5341 42.6842C30.8825 42.9771 31.338 43.1236 31.9007 43.1236C32.4633 43.1236 32.9188 42.9904 33.2672 42.7242C33.6155 42.4312 33.7897 42.0318 33.7897 41.526V23.2336C33.7897 22.7277 33.6155 22.3416 33.2672 22.0754C32.9188 21.7824 32.4633 21.636 31.9007 21.636C31.338 21.636 30.8825 21.7824 30.5341 22.0754C30.2126 22.3416 30.0518 22.7277 30.0518 23.2336ZM39.5524 28.6255V23.2336C39.5524 21.9022 40.0079 20.8638 40.919 20.1183C41.83 19.3727 43.0491 19 44.5764 19C46.1305 19 47.363 19.3461 48.274 20.0384C49.1853 20.7041 49.6405 21.5827 49.6405 22.6744V27.627C49.6405 28.1062 49.292 28.4391 48.5956 28.6255C48.2207 28.7319 47.8451 28.7852 47.4702 28.7852C47.0951 28.7852 46.7199 28.7453 46.3448 28.6654C46.4252 28.0264 46.4654 27.3474 46.4654 26.6285V23.2336C46.4654 22.7277 46.2913 22.3416 45.9429 22.0754C45.5946 21.7824 45.1391 21.636 44.5764 21.636C44.0137 21.636 43.5582 21.7824 43.2099 22.0754C42.8884 22.3416 42.7276 22.7277 42.7276 23.2336V27.9065C42.7276 28.8384 43.0357 29.4908 43.652 29.8636L47.9123 32.5795C49.1181 33.325 49.7209 34.4699 49.7209 36.0143V41.526C49.7209 42.8573 49.2518 43.8957 48.3142 44.6413C47.3764 45.3868 46.1305 45.7596 44.5764 45.7596C43.0491 45.7596 41.8166 45.4267 40.8788 44.7611C39.941 44.0688 39.4721 43.1768 39.4721 42.0851V37.1326C39.4721 36.6533 39.8204 36.3205 40.517 36.1341C40.8921 36.0276 41.2673 35.9744 41.6424 35.9744C42.0175 35.9744 42.3927 36.0143 42.7678 36.0942C42.6874 36.7332 42.6472 37.4122 42.6472 38.1311V41.526C42.6472 42.0052 42.8348 42.3913 43.2099 42.6842C43.585 42.9771 44.0539 43.1236 44.6166 43.1236C45.1793 43.1236 45.6348 42.9771 45.9831 42.6842C46.3582 42.3913 46.5458 42.0052 46.5458 41.526V37.0128C46.5458 35.9744 46.1841 35.2288 45.4606 34.7762L41.2003 32.0203C40.1018 31.328 39.5524 30.1964 39.5524 28.6255Z" fill="black"/>
</g>
<defs>
<clipPath id="clip0_233_104">
<rect width="64" height="64" fill="white"/>
</clipPath>
</defs>
</svg>
