<svg width="400" height="400" viewBox="0 0 400 400" fill="none" xmlns="http://www.w3.org/2000/svg">
<path d="M105.586 137.721C99.5575 137.721 95.0359 138.137 92.0216 138.969C90.682 134.31 90.012 129.733 90.012 125.24C90.012 122.577 91.1844 121.246 93.5288 121.246H150.551V259.537C150.551 267.858 147.704 274.348 142.01 279.008C136.316 283.667 128.613 285.997 118.9 285.997C109.354 285.997 101.735 283.917 96.0407 279.757C90.3468 275.43 87.5 269.855 87.5 263.032V232.079C87.5 229.083 89.6772 227.003 94.0311 225.838C96.3755 225.172 98.7203 224.84 101.065 224.84C103.409 224.84 105.754 225.089 108.098 225.589C107.596 229.583 107.345 233.826 107.345 238.319V259.537C107.345 262.699 108.433 265.195 110.61 267.026C112.787 268.69 115.634 269.522 119.151 269.522C122.668 269.522 125.431 268.69 127.44 267.026C129.618 265.195 130.706 262.699 130.706 259.537V137.721H105.586ZM167.979 260.536V145.21C167.979 136.889 170.826 130.399 176.52 125.739C182.214 121.08 190.001 118.75 199.881 118.75C209.762 118.75 217.382 120.913 222.74 125.24C228.267 129.567 231.03 135.891 231.03 144.212V259.537C231.03 267.858 228.099 274.348 222.238 279.008C216.544 283.667 208.757 285.997 198.877 285.997C188.996 285.997 181.376 283.834 176.018 279.507C170.659 275.18 167.979 268.856 167.979 260.536ZM187.824 145.21V259.537C187.824 262.533 188.829 264.946 190.838 266.776C193.016 268.607 195.862 269.522 199.379 269.522C202.896 269.522 205.743 268.69 207.92 267.026C210.097 265.195 211.185 262.699 211.185 259.537V145.21C211.185 142.048 210.097 139.635 207.92 137.971C205.743 136.14 202.896 135.225 199.379 135.225C195.862 135.225 193.016 136.14 190.838 137.971C188.829 139.635 187.824 142.048 187.824 145.21ZM247.203 178.909V145.21C247.203 136.889 250.05 130.399 255.744 125.739C261.437 121.08 269.057 118.75 278.602 118.75C288.316 118.75 296.019 120.913 301.713 125.24C307.408 129.4 310.253 134.892 310.253 141.715V172.669C310.253 175.664 308.075 177.744 303.722 178.909C301.379 179.575 299.032 179.908 296.689 179.908C294.344 179.908 292 179.658 289.655 179.159C290.158 175.165 290.409 170.921 290.409 166.428V145.21C290.409 142.048 289.32 139.635 287.143 137.971C284.966 136.14 282.119 135.225 278.602 135.225C275.086 135.225 272.239 136.14 270.062 137.971C268.052 139.635 267.047 142.048 267.047 145.21V174.416C267.047 180.24 268.973 184.317 272.825 186.647L299.452 203.622C306.988 208.281 310.756 215.437 310.756 225.089V259.537C310.756 267.858 307.824 274.348 301.964 279.008C296.103 283.667 288.316 285.997 278.602 285.997C269.057 285.997 261.353 283.917 255.492 279.757C249.631 275.43 246.7 269.855 246.7 263.032V232.079C246.7 229.083 248.878 227.003 253.232 225.838C255.576 225.172 257.921 224.84 260.265 224.84C262.609 224.84 264.954 225.089 267.299 225.589C266.796 229.583 266.545 233.826 266.545 238.319V259.537C266.545 262.533 267.717 264.946 270.062 266.776C272.406 268.607 275.337 269.522 278.854 269.522C282.37 269.522 285.217 268.607 287.394 266.776C289.739 264.946 290.911 262.533 290.911 259.537V231.33C290.911 224.84 288.65 220.18 284.129 217.351L257.502 200.127C250.636 195.8 247.203 188.728 247.203 178.909Z" fill="white"/>
</svg>
